# xmcd CD database file
#
# Track frame offsets:
#	150
#	13460
#	26070
#	39700
#	51127
#	62105
#	79067
#	93450
#	105235
#	121595
#	134805
#	193407
#	204577
#	215992
#	245565
#
# Disc length: 4440 seconds
#
# Revision: 0
# Processed by: cddbd v1.5PL3 Copyright (c) Steve Scherf et al.
# Submitted via: CDex 1.51
#
DISCID=e511560f
DTITLE=Junior Senior - d-d-don't don't stop the beat
DYEAR=2003
DGENRE=Dance
TTITLE0=Go Junior, Go Senior
TTITLE1=Rhythm Bandits
TTITLE2=Move Your Feet
TTITLE3=Chicks and Dicks
TTITLE4=Shake Your Coconuts
TTITLE5=Boy Meets Girl
TTITLE6=C'mon
TTITLE7=Good Girl, Bad Boy
TTITLE8=Shake Me Baby
TTITLE9=Dynamite
TTITLE10=White Thrash
TTITLE11=Cocodub
TTITLE12=Rhtym Bandits (Original Version)
TTITLE13=Move Your Feet (Live)
TTITLE14=CCCD Shit
EXTD=YEAR: 2003
EXTT0=
EXTT1=
EXTT2=
EXTT3=
EXTT4=
EXTT5=
EXTT6=
EXTT7=
EXTT8=
EXTT9=
EXTT10=
EXTT11=
EXTT12=
EXTT13=
EXTT14=
PLAYORDER=
